STARTFONT 2.1
COMMENT u-0400 charset font
COMMENT generated with /usr/bin/bdfassemble u-0400.txt
COMMENT on 1998-06-29 by czyborra@cs.tu-berlin.de
FONT -misc-fixed-medium-r-normal--16-160-75-75-c-80-u-0400
SIZE 16 75 75
FONTBOUNDINGBOX 8 16 0 -2
STARTPROPERTIES 2
FONT_ASCENT 14
FONT_DESCENT 2
ENDPROPERTIES
CHARS 222
STARTCHAR U+0401 CYRILLIC CAPITAL LETTER IO
ENCODING 1
SWIDTH 500 0
DWIDTH 8 0
BBX 8 16 0 -2
BITMAP
24
24
00
00
7e
40
40
40
7c
40
40
40
40
7e
00
00
ENDCHAR
STARTCHAR U+0402 CYRILLIC CAPITAL LETTER DJE
ENCODING 2
SWIDTH 500 0
DWIDTH 8 0
BBX 8 16 0 -2
BITMAP
00
00
00
00
7e
10
10
10
1e
11
11
11
11
16
00
00
ENDCHAR
STARTCHAR U+0403 CYRILLIC CAPITAL LETTER GJE
ENCODING 3
SWIDTH 500 0
DWIDTH 8 0
BBX 8 16 0 -2
BITMAP
0c
30
00
00
7e
40
40
40
40
40
40
40
40
40
00
00
ENDCHAR
STARTCHAR U+0404 CYRILLIC CAPITAL LETTER UKRAINIAN IE
ENCODING 4
SWIDTH 500 0
DWIDTH 8 0
BBX 8 16 0 -2
BITMAP
00
00
00
00
1c
22
40
40
7c
40
40
40
22
1c
00
00
ENDCHAR
STARTCHAR U+0405 CYRILLIC CAPITAL LETTER DZE
ENCODING 5
SWIDTH 500 0
DWIDTH 8 0
BBX 8 16 0 -2
BITMAP
00
00
00
00
3c
42
42
40
30
0c
02
42
42
3c
00
00
ENDCHAR
STARTCHAR U+0406 CYRILLIC CAPITAL LETTER BYELORUSSIAN-UKRAINIAN I
ENCODING 6
SWIDTH 500 0
DWIDTH 8 0
BBX 8 16 0 -2
BITMAP
00
00
00
00
3e
08
08
08
08
08
08
08
08
3e
00
00
ENDCHAR
STARTCHAR U+0407 CYRILLIC CAPITAL LETTER YI
ENCODING 7
SWIDTH 500 0
DWIDTH 8 0
BBX 8 16 0 -2
BITMAP
24
24
00
00
3e
08
08
08
08
08
08
08
08
3e
00
00
ENDCHAR
STARTCHAR U+0408 CYRILLIC CAPITAL LETTER JE
ENCODING 8
SWIDTH 500 0
DWIDTH 8 0
BBX 8 16 0 -2
BITMAP
00
00
00
00
0e
04
04
04
04
04
04
44
44
38
00
00
ENDCHAR
STARTCHAR U+0409 CYRILLIC CAPITAL LETTER LJE
ENCODING 9
SWIDTH 500 0
DWIDTH 8 0
BBX 8 16 0 -2
BITMAP
00
00
00
00
78
48
48
48
4e
49
49
49
49
8e
00
00
ENDCHAR
STARTCHAR U+040A CYRILLIC CAPITAL LETTER NJE
ENCODING 10
SWIDTH 500 0
DWIDTH 8 0
BBX 8 16 0 -2
BITMAP
00
00
00
00
48
48
48
48
7e
49
49
49
49
4e
00
00
ENDCHAR
STARTCHAR U+040B CYRILLIC CAPITAL LETTER TSHE
ENCODING 11
SWIDTH 500 0
DWIDTH 8 0
BBX 8 16 0 -2
BITMAP
00
00
00
00
7e
10
10
10
1e
11
11
11
11
11
00
00
ENDCHAR
STARTCHAR U+040C CYRILLIC CAPITAL LETTER KJE
ENCODING 12
SWIDTH 500 0
DWIDTH 8 0
BBX 8 16 0 -2
BITMAP
0c
30
00
00
40
46
48
50
60
60
50
48
44
42
00
00
ENDCHAR
STARTCHAR U+040E CYRILLIC CAPITAL LETTER SHORT U
ENCODING 14
SWIDTH 500 0
DWIDTH 8 0
BBX 8 16 0 -2
BITMAP
42
42
3c
00
41
41
22
22
14
14
08
08
10
30
00
00
ENDCHAR
STARTCHAR U+040F CYRILLIC CAPITAL LETTER DZHE
ENCODING 15
SWIDTH 500 0
DWIDTH 8 0
BBX 8 16 0 -2
BITMAP
00
00
00
00
41
41
41
41
41
41
7f
08
08
08
00
00
ENDCHAR
STARTCHAR U+0410 CYRILLIC CAPITAL LETTER A
ENCODING 16
SWIDTH 500 0
DWIDTH 8 0
BBX 8 16 0 -2
BITMAP
00
00
00
00
18
24
24
42
42
7e
42
42
42
42
00
00
ENDCHAR
STARTCHAR U+0411 CYRILLIC CAPITAL LETTER BE
ENCODING 17
SWIDTH 500 0
DWIDTH 8 0
BBX 8 16 0 -2
BITMAP
00
00
00
00
7c
40
40
40
7c
42
42
42
42
7c
00
00
ENDCHAR
STARTCHAR U+0412 CYRILLIC CAPITAL LETTER VE
ENCODING 18
SWIDTH 500 0
DWIDTH 8 0
BBX 8 16 0 -2
BITMAP
00
00
00
00
7c
42
42
42
7c
42
42
42
42
7c
00
00
ENDCHAR
STARTCHAR U+0413 CYRILLIC CAPITAL LETTER GHE
ENCODING 19
SWIDTH 500 0
DWIDTH 8 0
BBX 8 16 0 -2
BITMAP
00
00
00
00
7e
40
40
40
40
40
40
40
40
40
00
00
ENDCHAR
STARTCHAR U+0414 CYRILLIC CAPITAL LETTER DE
ENCODING 20
SWIDTH 500 0
DWIDTH 8 0
BBX 8 16 0 -2
BITMAP
00
00
00
00
0e
12
12
12
22
22
22
42
42
7f
01
01
ENDCHAR
STARTCHAR U+0415 CYRILLIC CAPITAL LETTER IE
ENCODING 21
SWIDTH 500 0
DWIDTH 8 0
BBX 8 16 0 -2
BITMAP
00
00
00
00
7e
40
40
40
7c
40
40
40
40
7e
00
00
ENDCHAR
STARTCHAR U+0416 CYRILLIC CAPITAL LETTER ZHE
ENCODING 22
SWIDTH 500 0
DWIDTH 8 0
BBX 8 16 0 -2
BITMAP
00
00
00
00
49
49
2a
2a
1c
1c
2a
2a
49
49
00
00
ENDCHAR
STARTCHAR U+0417 CYRILLIC CAPITAL LETTER ZE
ENCODING 23
SWIDTH 500 0
DWIDTH 8 0
BBX 8 16 0 -2
BITMAP
00
00
00
00
3c
42
02
02
3c
04
02
02
42
3c
00
00
ENDCHAR
STARTCHAR U+0418 CYRILLIC CAPITAL LETTER I
ENCODING 24
SWIDTH 500 0
DWIDTH 8 0
BBX 8 16 0 -2
BITMAP
00
00
00
00
42
46
46
4a
4a
52
52
62
62
42
00
00
ENDCHAR
STARTCHAR U+0419 CYRILLIC CAPITAL LETTER SHORT I
ENCODING 25
SWIDTH 500 0
DWIDTH 8 0
BBX 8 16 0 -2
BITMAP
42
42
3c
00
42
46
46
4a
4a
52
52
62
62
42
00
00
ENDCHAR
STARTCHAR U+041A CYRILLIC CAPITAL LETTER KA
ENCODING 26
SWIDTH 500 0
DWIDTH 8 0
BBX 8 16 0 -2
BITMAP
00
00
00
00
40
46
48
50
60
60
50
48
44
42
00
00
ENDCHAR
STARTCHAR U+041B CYRILLIC CAPITAL LETTER EL
ENCODING 27
SWIDTH 500 0
DWIDTH 8 0
BBX 8 16 0 -2
BITMAP
00
00
00
00
1e
12
12
12
12
12
12
22
22
42
00
00
ENDCHAR
STARTCHAR U+041C CYRILLIC CAPITAL LETTER EM
ENCODING 28
SWIDTH 500 0
DWIDTH 8 0
BBX 8 16 0 -2
BITMAP
00
00
00
00
42
42
66
66
5a
5a
42
42
42
42
00
00
ENDCHAR
STARTCHAR U+041D CYRILLIC CAPITAL LETTER EN
ENCODING 29
SWIDTH 500 0
DWIDTH 8 0
BBX 8 16 0 -2
BITMAP
00
00
00
00
42
42
42
42
7e
42
42
42
42
42
00
00
ENDCHAR
STARTCHAR U+041E CYRILLIC CAPITAL LETTER O
ENCODING 30
SWIDTH 500 0
DWIDTH 8 0
BBX 8 16 0 -2
BITMAP
00
00
00
00
3c
42
42
42
42
42
42
42
42
3c
00
00
ENDCHAR
STARTCHAR U+041F CYRILLIC CAPITAL LETTER PE
ENCODING 31
SWIDTH 500 0
DWIDTH 8 0
BBX 8 16 0 -2
BITMAP
00
00
00
00
7e
42
42
42
42
42
42
42
42
42
00
00
ENDCHAR
STARTCHAR U+0420 CYRILLIC CAPITAL LETTER ER
ENCODING 32
SWIDTH 500 0
DWIDTH 8 0
BBX 8 16 0 -2
BITMAP
00
00
00
00
7c
42
42
42
7c
40
40
40
40
40
00
00
ENDCHAR
STARTCHAR U+0421 CYRILLIC CAPITAL LETTER ES
ENCODING 33
SWIDTH 500 0
DWIDTH 8 0
BBX 8 16 0 -2
BITMAP
00
00
00
00
3c
42
42
40
40
40
40
42
42
3c
00
00
ENDCHAR
STARTCHAR U+0422 CYRILLIC CAPITAL LETTER TE
ENCODING 34
SWIDTH 500 0
DWIDTH 8 0
BBX 8 16 0 -2
BITMAP
00
00
00
00
7f
08
08
08
08
08
08
08
08
08
00
00
ENDCHAR
STARTCHAR U+0423 CYRILLIC CAPITAL LETTER U
ENCODING 35
SWIDTH 500 0
DWIDTH 8 0
BBX 8 16 0 -2
BITMAP
00
00
00
00
41
41
22
22
14
14
08
08
10
30
00
00
ENDCHAR
STARTCHAR U+0424 CYRILLIC CAPITAL LETTER EF
ENCODING 36
SWIDTH 500 0
DWIDTH 8 0
BBX 8 16 0 -2
BITMAP
00
00
00
08
08
3e
49
49
49
49
49
3e
08
08
00
00
ENDCHAR
STARTCHAR U+0425 CYRILLIC CAPITAL LETTER HA
ENCODING 37
SWIDTH 500 0
DWIDTH 8 0
BBX 8 16 0 -2
BITMAP
00
00
00
00
42
42
24
24
18
18
24
24
42
42
00
00
ENDCHAR
STARTCHAR U+0426 CYRILLIC CAPITAL LETTER TSE
ENCODING 38
SWIDTH 500 0
DWIDTH 8 0
BBX 8 16 0 -2
BITMAP
00
00
00
00
42
42
42
42
42
42
42
42
42
7f
01
01
ENDCHAR
STARTCHAR U+0427 CYRILLIC CAPITAL LETTER CHE
ENCODING 39
SWIDTH 500 0
DWIDTH 8 0
BBX 8 16 0 -2
BITMAP
00
00
00
00
42
42
42
42
42
46
3a
02
02
02
00
00
ENDCHAR
STARTCHAR U+0428 CYRILLIC CAPITAL LETTER SHA
ENCODING 40
SWIDTH 500 0
DWIDTH 8 0
BBX 8 16 0 -2
BITMAP
00
00
00
00
49
49
49
49
49
49
49
49
49
7f
00
00
ENDCHAR
STARTCHAR U+0429 CYRILLIC CAPITAL LETTER SHCHA
ENCODING 41
SWIDTH 500 0
DWIDTH 8 0
BBX 8 16 0 -2
BITMAP
00
00
00
00
49
49
49
49
49
49
49
49
49
7f
01
01
ENDCHAR
STARTCHAR U+042A CYRILLIC CAPITAL LETTER HARD SIGN
ENCODING 42
SWIDTH 500 0
DWIDTH 8 0
BBX 8 16 0 -2
BITMAP
00
00
00
00
70
10
10
10
1e
11
11
11
11
1e
00
00
ENDCHAR
STARTCHAR U+042B CYRILLIC CAPITAL LETTER YERU
ENCODING 43
SWIDTH 500 0
DWIDTH 8 0
BBX 8 16 0 -2
BITMAP
00
00
00
00
42
42
42
42
72
4a
4a
4a
4a
72
00
00
ENDCHAR
STARTCHAR U+042C CYRILLIC CAPITAL LETTER SOFT SIGN
ENCODING 44
SWIDTH 500 0
DWIDTH 8 0
BBX 8 16 0 -2
BITMAP
00
00
00
00
40
40
40
40
7c
42
42
42
42
7c
00
00
ENDCHAR
STARTCHAR U+042D CYRILLIC CAPITAL LETTER E
ENCODING 45
SWIDTH 500 0
DWIDTH 8 0
BBX 8 16 0 -2
BITMAP
00
00
00
00
38
44
02
02
3e
02
02
02
44
38
00
00
ENDCHAR
STARTCHAR U+042E CYRILLIC CAPITAL LETTER YU
ENCODING 46
SWIDTH 500 0
DWIDTH 8 0
BBX 8 16 0 -2
BITMAP
00
00
00
00
4c
52
52
52
72
52
52
52
52
4c
00
00
ENDCHAR
STARTCHAR U+042F CYRILLIC CAPITAL LETTER YA
ENCODING 47
SWIDTH 500 0
DWIDTH 8 0
BBX 8 16 0 -2
BITMAP
00
00
00
00
3e
42
42
42
3e
12
22
22
42
42
00
00
ENDCHAR
STARTCHAR U+0430 CYRILLIC SMALL LETTER A
ENCODING 48
SWIDTH 500 0
DWIDTH 8 0
BBX 8 16 0 -2
BITMAP
00
00
00
00
00
00
3c
42
02
3e
42
42
46
3a
00
00
ENDCHAR
STARTCHAR U+0431 CYRILLIC SMALL LETTER BE
ENCODING 49
SWIDTH 500 0
DWIDTH 8 0
BBX 8 16 0 -2
BITMAP
00
00
02
1c
20
40
7c
42
42
42
42
42
42
3c
00
00
ENDCHAR
STARTCHAR U+0432 CYRILLIC SMALL LETTER VE
ENCODING 50
SWIDTH 500 0
DWIDTH 8 0
BBX 8 16 0 -2
BITMAP
00
00
00
00
00
00
7c
42
42
7c
42
42
42
7c
00
00
ENDCHAR
STARTCHAR U+0433 CYRILLIC SMALL LETTER GHE
ENCODING 51
SWIDTH 500 0
DWIDTH 8 0
BBX 8 16 0 -2
BITMAP
00
00
00
00
00
00
7e
40
40
40
40
40
40
40
00
00
ENDCHAR
STARTCHAR U+0434 CYRILLIC SMALL LETTER DE
ENCODING 52
SWIDTH 500 0
DWIDTH 8 0
BBX 8 16 0 -2
BITMAP
00
00
00
00
00
00
1e
12
22
22
42
42
42
7f
01
00
ENDCHAR
STARTCHAR U+0435 CYRILLIC SMALL LETTER IE
ENCODING 53
SWIDTH 500 0
DWIDTH 8 0
BBX 8 16 0 -2
BITMAP
00
00
00
00
00
00
3c
42
42
7e
40
40
42
3c
00
00
ENDCHAR
STARTCHAR U+0436 CYRILLIC SMALL LETTER ZHE
ENCODING 54
SWIDTH 500 0
DWIDTH 8 0
BBX 8 16 0 -2
BITMAP
00
00
00
00
00
00
49
49
2a
1c
1c
2a
49
49
00
00
ENDCHAR
STARTCHAR U+0437 CYRILLIC SMALL LETTER ZE
ENCODING 55
SWIDTH 500 0
DWIDTH 8 0
BBX 8 16 0 -2
BITMAP
00
00
00
00
00
00
3c
42
02
3c
04
02
42
3c
00
00
ENDCHAR
STARTCHAR U+0438 CYRILLIC SMALL LETTER I
ENCODING 56
SWIDTH 500 0
DWIDTH 8 0
BBX 8 16 0 -2
BITMAP
00
00
00
00
00
00
46
46
4a
4a
52
52
62
62
00
00
ENDCHAR
STARTCHAR U+0439 CYRILLIC SMALL LETTER SHORT I
ENCODING 57
SWIDTH 500 0
DWIDTH 8 0
BBX 8 16 0 -2
BITMAP
00
42
42
3c
00
00
46
46
4a
4a
52
52
62
62
00
00
ENDCHAR
STARTCHAR U+043A CYRILLIC SMALL LETTER KA
ENCODING 58
SWIDTH 500 0
DWIDTH 8 0
BBX 8 16 0 -2
BITMAP
00
00
00
00
00
00
46
48
50
60
50
48
44
42
00
00
ENDCHAR
STARTCHAR U+043B CYRILLIC SMALL LETTER EL
ENCODING 59
SWIDTH 500 0
DWIDTH 8 0
BBX 8 16 0 -2
BITMAP
00
00
00
00
00
00
1e
12
12
12
12
22
22
42
00
00
ENDCHAR
STARTCHAR U+043C CYRILLIC SMALL LETTER EM
ENCODING 60
SWIDTH 500 0
DWIDTH 8 0
BBX 8 16 0 -2
BITMAP
00
00
00
00
00
00
42
66
66
5a
5a
42
42
42
00
00
ENDCHAR
STARTCHAR U+043D CYRILLIC SMALL LETTER EN
ENCODING 61
SWIDTH 500 0
DWIDTH 8 0
BBX 8 16 0 -2
BITMAP
00
00
00
00
00
00
42
42
42
7e
42
42
42
42
00
00
ENDCHAR
STARTCHAR U+043E CYRILLIC SMALL LETTER O
ENCODING 62
SWIDTH 500 0
DWIDTH 8 0
BBX 8 16 0 -2
BITMAP
00
00
00
00
00
00
3c
42
42
42
42
42
42
3c
00
00
ENDCHAR
STARTCHAR U+043F CYRILLIC SMALL LETTER PE
ENCODING 63
SWIDTH 500 0
DWIDTH 8 0
BBX 8 16 0 -2
BITMAP
00
00
00
00
00
00
7e
42
42
42
42
42
42
42
00
00
ENDCHAR
STARTCHAR U+0440 CYRILLIC SMALL LETTER ER
ENCODING 64
SWIDTH 500 0
DWIDTH 8 0
BBX 8 16 0 -2
BITMAP
00
00
00
00
00
00
5c
62
42
42
42
42
62
5c
40
40
ENDCHAR
STARTCHAR U+0441 CYRILLIC SMALL LETTER ES
ENCODING 65
SWIDTH 500 0
DWIDTH 8 0
BBX 8 16 0 -2
BITMAP
00
00
00
00
00
00
3c
42
40
40
40
40
42
3c
00
00
ENDCHAR
STARTCHAR U+0442 CYRILLIC SMALL LETTER TE
ENCODING 66
SWIDTH 500 0
DWIDTH 8 0
BBX 8 16 0 -2
BITMAP
00
00
00
00
00
00
7f
08
08
08
08
08
08
08
00
00
ENDCHAR
STARTCHAR U+0443 CYRILLIC SMALL LETTER U
ENCODING 67
SWIDTH 500 0
DWIDTH 8 0
BBX 8 16 0 -2
BITMAP
00
00
00
00
00
00
42
42
24
24
18
18
10
10
20
60
ENDCHAR
STARTCHAR U+0444 CYRILLIC SMALL LETTER EF
ENCODING 68
SWIDTH 500 0
DWIDTH 8 0
BBX 8 16 0 -2
BITMAP
00
00
00
00
00
08
08
3e
49
49
49
49
3e
08
08
00
ENDCHAR
STARTCHAR U+0445 CYRILLIC SMALL LETTER HA
ENCODING 69
SWIDTH 500 0
DWIDTH 8 0
BBX 8 16 0 -2
BITMAP
00
00
00
00
00
00
42
42
24
18
18
24
42
42
00
00
ENDCHAR
STARTCHAR U+0446 CYRILLIC SMALL LETTER TSE
ENCODING 70
SWIDTH 500 0
DWIDTH 8 0
BBX 8 16 0 -2
BITMAP
00
00
00
00
00
00
42
42
42
42
42
42
42
7f
01
01
ENDCHAR
STARTCHAR U+0447 CYRILLIC SMALL LETTER CHE
ENCODING 71
SWIDTH 500 0
DWIDTH 8 0
BBX 8 16 0 -2
BITMAP
00
00
00
00
00
00
42
42
42
42
46
3a
02
02
00
00
ENDCHAR
STARTCHAR U+0448 CYRILLIC SMALL LETTER SHA
ENCODING 72
SWIDTH 500 0
DWIDTH 8 0
BBX 8 16 0 -2
BITMAP
00
00
00
00
00
00
49
49
49
49
49
49
49
7f
00
00
ENDCHAR
STARTCHAR U+0449 CYRILLIC SMALL LETTER SHCHA
ENCODING 73
SWIDTH 500 0
DWIDTH 8 0
BBX 8 16 0 -2
BITMAP
00
00
00
00
00
00
49
49
49
49
49
49
49
7f
01
01
ENDCHAR
STARTCHAR U+044A CYRILLIC SMALL LETTER HARD SIGN
ENCODING 74
SWIDTH 500 0
DWIDTH 8 0
BBX 8 16 0 -2
BITMAP
00
00
00
00
00
00
70
10
10
1e
11
11
11
1e
00
00
ENDCHAR
STARTCHAR U+044B CYRILLIC SMALL LETTER YERU
ENCODING 75
SWIDTH 500 0
DWIDTH 8 0
BBX 8 16 0 -2
BITMAP
00
00
00
00
00
00
42
42
42
72
4a
4a
4a
72
00
00
ENDCHAR
STARTCHAR U+044C CYRILLIC SMALL LETTER SOFT SIGN
ENCODING 76
SWIDTH 500 0
DWIDTH 8 0
BBX 8 16 0 -2
BITMAP
00
00
00
00
00
00
40
40
40
7c
42
42
42
7c
00
00
ENDCHAR
STARTCHAR U+044D CYRILLIC SMALL LETTER E
ENCODING 77
SWIDTH 500 0
DWIDTH 8 0
BBX 8 16 0 -2
BITMAP
00
00
00
00
00
00
38
44
02
3e
02
02
44
38
00
00
ENDCHAR
STARTCHAR U+044E CYRILLIC SMALL LETTER YU
ENCODING 78
SWIDTH 500 0
DWIDTH 8 0
BBX 8 16 0 -2
BITMAP
00
00
00
00
00
00
4c
52
52
72
52
52
52
4c
00
00
ENDCHAR
STARTCHAR U+044F CYRILLIC SMALL LETTER YA
ENCODING 79
SWIDTH 500 0
DWIDTH 8 0
BBX 8 16 0 -2
BITMAP
00
00
00
00
00
00
3e
42
42
42
3e
12
22
42
00
00
ENDCHAR
STARTCHAR U+0451 CYRILLIC SMALL LETTER IO
ENCODING 81
SWIDTH 500 0
DWIDTH 8 0
BBX 8 16 0 -2
BITMAP
00
00
24
24
00
00
3c
42
42
7e
40
40
42
3c
00
00
ENDCHAR
STARTCHAR U+0452 CYRILLIC SMALL LETTER DJE
ENCODING 82
SWIDTH 500 0
DWIDTH 8 0
BBX 8 16 0 -2
BITMAP
00
00
00
00
20
20
78
20
20
3c
22
22
22
22
0c
00
ENDCHAR
STARTCHAR U+0453 CYRILLIC SMALL LETTER GJE
ENCODING 83
SWIDTH 500 0
DWIDTH 8 0
BBX 8 16 0 -2
BITMAP
00
00
0c
30
00
00
7e
40
40
40
40
40
40
40
00
00
ENDCHAR
STARTCHAR U+0454 CYRILLIC SMALL LETTER UKRAINIAN IE
ENCODING 84
SWIDTH 500 0
DWIDTH 8 0
BBX 8 16 0 -2
BITMAP
00
00
00
00
00
00
1c
22
40
7c
40
40
22
1c
00
00
ENDCHAR
STARTCHAR U+0455 CYRILLIC SMALL LETTER DZE
ENCODING 85
SWIDTH 500 0
DWIDTH 8 0
BBX 8 16 0 -2
BITMAP
00
00
00
00
00
00
3c
42
40
30
0c
02
42
3c
00
00
ENDCHAR
STARTCHAR U+0456 CYRILLIC SMALL LETTER BYELORUSSIAN-UKRAINIAN I
ENCODING 86
SWIDTH 500 0
DWIDTH 8 0
BBX 8 16 0 -2
BITMAP
00
00
00
08
08
00
18
08
08
08
08
08
08
3e
00
00
ENDCHAR
STARTCHAR U+0457 CYRILLIC SMALL LETTER YI
ENCODING 87
SWIDTH 500 0
DWIDTH 8 0
BBX 8 16 0 -2
BITMAP
00
00
00
24
24
00
18
08
08
08
08
08
08
3e
00
00
ENDCHAR
STARTCHAR U+0458 CYRILLIC SMALL LETTER JE
ENCODING 88
SWIDTH 500 0
DWIDTH 8 0
BBX 8 16 0 -2
BITMAP
00
00
00
04
04
00
0c
04
04
04
04
04
04
04
48
30
ENDCHAR
STARTCHAR U+0459 CYRILLIC SMALL LETTER LJE
ENCODING 89
SWIDTH 500 0
DWIDTH 8 0
BBX 8 16 0 -2
BITMAP
00
00
00
00
00
00
78
48
48
4e
49
49
49
8e
00
00
ENDCHAR
STARTCHAR U+045A CYRILLIC SMALL LETTER NJE
ENCODING 90
SWIDTH 500 0
DWIDTH 8 0
BBX 8 16 0 -2
BITMAP
00
00
00
00
00
00
48
48
48
7e
49
49
49
4e
00
00
ENDCHAR
STARTCHAR U+045B CYRILLIC SMALL LETTER TSHE
ENCODING 91
SWIDTH 500 0
DWIDTH 8 0
BBX 8 16 0 -2
BITMAP
00
00
00
00
20
20
78
20
20
2c
32
22
22
22
00
00
ENDCHAR
STARTCHAR U+045C CYRILLIC SMALL LETTER KJE
ENCODING 92
SWIDTH 500 0
DWIDTH 8 0
BBX 8 16 0 -2
BITMAP
00
00
0c
30
00
00
46
48
50
60
50
48
44
42
00
00
ENDCHAR
STARTCHAR U+045E CYRILLIC SMALL LETTER SHORT U
ENCODING 94
SWIDTH 500 0
DWIDTH 8 0
BBX 8 16 0 -2
BITMAP
00
42
42
3c
00
00
42
42
24
24
18
18
10
10
20
60
ENDCHAR
STARTCHAR U+045F CYRILLIC SMALL LETTER DZHE
ENCODING 95
SWIDTH 500 0
DWIDTH 8 0
BBX 8 16 0 -2
BITMAP
00
00
00
00
00
00
22
22
22
22
22
22
3e
08
08
08
ENDCHAR
STARTCHAR U+0460 CYRILLIC CAPITAL LETTER OMEGA
ENCODING 96
SWIDTH 500 0
DWIDTH 8 0
BBX 8 16 0 -2
BITMAP
00
00
00
00
36
41
41
41
41
49
49
49
49
36
00
00
ENDCHAR
STARTCHAR U+0461 CYRILLIC SMALL LETTER OMEGA
ENCODING 97
SWIDTH 500 0
DWIDTH 8 0
BBX 8 16 0 -2
BITMAP
00
00
00
00
00
00
22
41
41
49
49
49
49
36
00
00
ENDCHAR
STARTCHAR U+0462 CYRILLIC CAPITAL LETTER YAT
ENCODING 98
SWIDTH 500 0
DWIDTH 8 0
BBX 8 16 0 -2
BITMAP
00
00
00
00
10
7c
10
10
1e
11
11
11
11
1e
00
00
ENDCHAR
STARTCHAR U+0463 CYRILLIC SMALL LETTER YAT
ENCODING 99
SWIDTH 500 0
DWIDTH 8 0
BBX 8 16 0 -2
BITMAP
00
00
00
00
20
20
78
20
20
3c
22
22
22
3c
00
00
ENDCHAR
STARTCHAR U+0464 CYRILLIC CAPITAL LETTER IOTIFIED E
ENCODING 100
SWIDTH 500 0
DWIDTH 8 0
BBX 8 16 0 -2
BITMAP
00
00
00
00
46
49
50
50
7e
50
50
50
49
46
00
00
ENDCHAR
STARTCHAR U+0465 CYRILLIC SMALL LETTER IOTIFIED E
ENCODING 101
SWIDTH 500 0
DWIDTH 8 0
BBX 8 16 0 -2
BITMAP
00
00
00
00
00
00
46
49
50
7e
50
50
49
46
00
00
ENDCHAR
STARTCHAR U+0466 CYRILLIC CAPITAL LETTER LITTLE YUS
ENCODING 102
SWIDTH 500 0
DWIDTH 8 0
BBX 8 16 0 -2
BITMAP
00
00
00
00
08
08
14
14
22
36
2a
49
49
49
00
00
ENDCHAR
STARTCHAR U+0467 CYRILLIC SMALL LETTER LITTLE YUS
ENCODING 103
SWIDTH 500 0
DWIDTH 8 0
BBX 8 16 0 -2
BITMAP
00
00
00
00
00
00
08
14
14
22
36
49
49
49
00
00
ENDCHAR
STARTCHAR U+0468 CYRILLIC CAPITAL LETTER IOTIFIED LITTLE YUS
ENCODING 104
SWIDTH 500 0
DWIDTH 8 0
BBX 8 16 0 -2
BITMAP
00
00
00
00
48
48
54
54
52
76
6a
49
49
49
00
00
ENDCHAR
STARTCHAR U+0469 CYRILLIC SMALL LETTER IOTIFIED LITTLE YUS
ENCODING 105
SWIDTH 500 0
DWIDTH 8 0
BBX 8 16 0 -2
BITMAP
00
00
00
00
00
00
48
54
54
52
76
49
49
49
00
00
ENDCHAR
STARTCHAR U+046A CYRILLIC CAPITAL LETTER BIG YUS
ENCODING 106
SWIDTH 500 0
DWIDTH 8 0
BBX 8 16 0 -2
BITMAP
00
00
00
00
3e
22
22
14
08
1c
2a
49
49
49
00
00
ENDCHAR
STARTCHAR U+046B CYRILLIC SMALL LETTER BIG YUS
ENCODING 107
SWIDTH 500 0
DWIDTH 8 0
BBX 8 16 0 -2
BITMAP
00
00
00
00
00
00
3e
22
14
08
3e
49
49
49
00
00
ENDCHAR
STARTCHAR U+046C CYRILLIC CAPITAL LETTER IOTIFIED BIG YUS
ENCODING 108
SWIDTH 500 0
DWIDTH 8 0
BBX 8 16 0 -2
BITMAP
00
00
00
00
5f
51
51
4a
74
4e
55
55
55
55
00
00
ENDCHAR
STARTCHAR U+046D CYRILLIC SMALL LETTER IOTIFIED BIG YUS
ENCODING 109
SWIDTH 500 0
DWIDTH 8 0
BBX 8 16 0 -2
BITMAP
00
00
00
00
00
00
5f
51
4a
74
4e
55
55
55
00
00
ENDCHAR
STARTCHAR U+046E CYRILLIC CAPITAL LETTER KSI
ENCODING 110
SWIDTH 500 0
DWIDTH 8 0
BBX 8 16 0 -2
BITMAP
00
00
24
18
3c
42
02
02
3c
04
02
02
02
3c
40
40
ENDCHAR
STARTCHAR U+046F CYRILLIC SMALL LETTER KSI
ENCODING 111
SWIDTH 500 0
DWIDTH 8 0
BBX 8 16 0 -2
BITMAP
00
00
00
24
18
00
3c
42
02
3c
04
02
02
3c
40
40
ENDCHAR
STARTCHAR U+0470 CYRILLIC CAPITAL LETTER PSI
ENCODING 112
SWIDTH 500 0
DWIDTH 8 0
BBX 8 16 0 -2
BITMAP
00
00
00
00
49
49
49
49
49
3e
08
08
08
08
00
00
ENDCHAR
STARTCHAR U+0471 CYRILLIC SMALL LETTER PSI
ENCODING 113
SWIDTH 500 0
DWIDTH 8 0
BBX 8 16 0 -2
BITMAP
00
00
00
00
00
00
00
00
49
49
49
49
49
3e
08
08
ENDCHAR
STARTCHAR U+0472 CYRILLIC CAPITAL LETTER FITA
ENCODING 114
SWIDTH 500 0
DWIDTH 8 0
BBX 8 16 0 -2
BITMAP
00
00
00
00
3c
42
42
42
7e
42
42
42
42
3c
00
00
ENDCHAR
STARTCHAR U+0473 CYRILLIC SMALL LETTER FITA
ENCODING 115
SWIDTH 500 0
DWIDTH 8 0
BBX 8 16 0 -2
BITMAP
00
00
00
00
00
00
3c
42
42
7e
42
42
42
3c
00
00
ENDCHAR
STARTCHAR U+0474 CYRILLIC CAPITAL LETTER IZHITSA
ENCODING 116
SWIDTH 500 0
DWIDTH 8 0
BBX 8 16 0 -2
BITMAP
00
00
00
00
43
44
44
44
28
28
28
10
10
10
00
00
ENDCHAR
STARTCHAR U+0475 CYRILLIC SMALL LETTER IZHITSA
ENCODING 117
SWIDTH 500 0
DWIDTH 8 0
BBX 8 16 0 -2
BITMAP
00
00
00
00
00
00
46
48
48
28
28
28
10
10
00
00
ENDCHAR
STARTCHAR U+0476 CYRILLIC CAPITAL LETTER IZHITSA WITH DOUBLE GRAVE ACCENT
ENCODING 118
SWIDTH 500 0
DWIDTH 8 0
BBX 8 16 0 -2
BITMAP
66
11
00
00
43
44
44
44
28
28
28
10
10
10
00
00
ENDCHAR
STARTCHAR U+0477 CYRILLIC SMALL LETTER IZHITSA WITH DOUBLE GRAVE ACCENT
ENCODING 119
SWIDTH 500 0
DWIDTH 8 0
BBX 8 16 0 -2
BITMAP
00
00
66
11
00
00
46
48
48
28
28
28
10
10
00
00
ENDCHAR
STARTCHAR U+0478 CYRILLIC CAPITAL LETTER UK
ENCODING 120
SWIDTH 500 0
DWIDTH 8 0
BBX 8 16 0 -2
BITMAP
00
00
00
00
20
50
59
59
59
55
56
54
54
24
08
08
ENDCHAR
STARTCHAR U+0479 CYRILLIC SMALL LETTER UK
ENCODING 121
SWIDTH 500 0
DWIDTH 8 0
BBX 8 16 0 -2
BITMAP
00
00
00
00
00
00
29
59
59
55
56
54
54
24
08
08
ENDCHAR
STARTCHAR U+047A CYRILLIC CAPITAL LETTER ROUND OMEGA
ENCODING 122
SWIDTH 500 0
DWIDTH 8 0
BBX 8 16 0 -2
BITMAP
00
00
00
08
3e
49
41
41
41
41
41
41
49
3e
08
00
ENDCHAR
STARTCHAR U+047B CYRILLIC SMALL LETTER ROUND OMEGA
ENCODING 123
SWIDTH 500 0
DWIDTH 8 0
BBX 8 16 0 -2
BITMAP
00
00
00
00
00
08
3e
49
41
41
41
41
49
3e
08
00
ENDCHAR
STARTCHAR U+047C CYRILLIC CAPITAL LETTER OMEGA WITH TITLO
ENCODING 124
SWIDTH 500 0
DWIDTH 8 0
BBX 8 16 0 -2
BITMAP
3c
43
18
00
36
41
41
41
41
49
49
49
49
36
00
00
ENDCHAR
STARTCHAR U+047D CYRILLIC SMALL LETTER OMEGA WITH TITLO
ENCODING 125
SWIDTH 500 0
DWIDTH 8 0
BBX 8 16 0 -2
BITMAP
00
00
3c
43
18
00
22
41
41
49
49
49
49
36
00
00
ENDCHAR
STARTCHAR U+047E CYRILLIC CAPITAL LETTER OT
ENCODING 126
SWIDTH 500 0
DWIDTH 8 0
BBX 8 16 0 -2
BITMAP
7f
08
00
00
36
41
41
41
41
49
49
49
49
36
00
00
ENDCHAR
STARTCHAR U+047F CYRILLIC SMALL LETTER OT
ENCODING 127
SWIDTH 500 0
DWIDTH 8 0
BBX 8 16 0 -2
BITMAP
00
00
7f
08
00
00
22
41
41
49
49
49
49
36
00
00
ENDCHAR
STARTCHAR U+0480 CYRILLIC CAPITAL LETTER KOPPA
ENCODING 128
SWIDTH 500 0
DWIDTH 8 0
BBX 8 16 0 -2
BITMAP
00
00
00
00
3c
42
42
40
40
40
40
40
3c
04
04
04
ENDCHAR
STARTCHAR U+0481 CYRILLIC SMALL LETTER KOPPA
ENCODING 129
SWIDTH 500 0
DWIDTH 8 0
BBX 8 16 0 -2
BITMAP
00
00
00
00
00
00
3c
42
42
40
40
40
3c
04
04
04
ENDCHAR
STARTCHAR U+0482 CYRILLIC THOUSANDS SIGN
ENCODING 130
SWIDTH 500 0
DWIDTH 8 0
BBX 8 16 0 -2
BITMAP
00
00
00
00
00
00
12
0c
44
2a
11
18
24
00
00
00
ENDCHAR
STARTCHAR U+0490 CYRILLIC CAPITAL LETTER GHE WITH UPTURN
ENCODING 144
SWIDTH 500 0
DWIDTH 8 0
BBX 8 16 0 -2
BITMAP
00
00
02
02
7e
40
40
40
40
40
40
40
40
40
00
00
ENDCHAR
STARTCHAR U+0491 CYRILLIC SMALL LETTER GHE WITH UPTURN
ENCODING 145
SWIDTH 500 0
DWIDTH 8 0
BBX 8 16 0 -2
BITMAP
00
00
00
00
02
02
7e
40
40
40
40
40
40
40
00
00
ENDCHAR
STARTCHAR U+0492 CYRILLIC CAPITAL LETTER GHE WITH STROKE
ENCODING 146
SWIDTH 500 0
DWIDTH 8 0
BBX 8 16 0 -2
BITMAP
00
00
00
00
1f
10
10
10
10
7c
10
10
10
10
00
00
ENDCHAR
STARTCHAR U+0493 CYRILLIC SMALL LETTER GHE WITH STROKE
ENCODING 147
SWIDTH 500 0
DWIDTH 8 0
BBX 8 16 0 -2
BITMAP
00
00
00
00
00
00
1f
10
10
10
7c
10
10
10
00
00
ENDCHAR
STARTCHAR U+0494 CYRILLIC CAPITAL LETTER GHE WITH MIDDLE HOOK
ENCODING 148
SWIDTH 500 0
DWIDTH 8 0
BBX 8 16 0 -2
BITMAP
00
00
00
00
7e
40
40
40
40
7c
42
42
42
42
0c
00
ENDCHAR
STARTCHAR U+0495 CYRILLIC SMALL LETTER GHE WITH MIDDLE HOOK
ENCODING 149
SWIDTH 500 0
DWIDTH 8 0
BBX 8 16 0 -2
BITMAP
00
00
00
00
00
00
7e
40
40
40
7c
42
42
42
0c
00
ENDCHAR
STARTCHAR U+0496 CYRILLIC CAPITAL LETTER ZHE WITH DESCENDER
ENCODING 150
SWIDTH 500 0
DWIDTH 8 0
BBX 8 16 0 -2
BITMAP
00
00
00
00
49
49
2a
2a
1c
1c
2a
2a
49
49
01
01
ENDCHAR
STARTCHAR U+0497 CYRILLIC SMALL LETTER ZHE WITH DESCENDER
ENCODING 151
SWIDTH 500 0
DWIDTH 8 0
BBX 8 16 0 -2
BITMAP
00
00
00
00
00
00
49
49
2a
1c
1c
2a
49
49
01
01
ENDCHAR
STARTCHAR U+0498 CYRILLIC CAPITAL LETTER ZE WITH DESCENDER
ENCODING 152
SWIDTH 500 0
DWIDTH 8 0
BBX 8 16 0 -2
BITMAP
00
00
00
00
3c
42
02
02
3c
04
02
02
42
3c
08
30
ENDCHAR
STARTCHAR U+0499 CYRILLIC SMALL LETTER ZE WITH DESCENDER
ENCODING 153
SWIDTH 500 0
DWIDTH 8 0
BBX 8 16 0 -2
BITMAP
00
00
00
00
00
00
3c
42
02
3c
04
02
42
3c
08
30
ENDCHAR
STARTCHAR U+049A CYRILLIC CAPITAL LETTER KA WITH DESCENDER
ENCODING 154
SWIDTH 500 0
DWIDTH 8 0
BBX 8 16 0 -2
BITMAP
00
00
00
00
40
46
48
50
60
60
50
48
44
42
02
02
ENDCHAR
STARTCHAR U+049B CYRILLIC SMALL LETTER KA WITH DESCENDER
ENCODING 155
SWIDTH 500 0
DWIDTH 8 0
BBX 8 16 0 -2
BITMAP
00
00
00
00
00
00
46
48
50
60
50
48
44
42
02
02
ENDCHAR
STARTCHAR U+049C CYRILLIC CAPITAL LETTER KA WITH VERTICAL STROKE
ENCODING 156
SWIDTH 500 0
DWIDTH 8 0
BBX 8 16 0 -2
BITMAP
00
00
00
00
40
43
54
54
78
54
54
54
42
41
00
00
ENDCHAR
STARTCHAR U+049D CYRILLIC SMALL LETTER KA WITH VERTICAL STROKE
ENCODING 157
SWIDTH 500 0
DWIDTH 8 0
BBX 8 16 0 -2
BITMAP
00
00
00
00
00
00
43
54
54
78
54
54
42
41
00
00
ENDCHAR
STARTCHAR U+049E CYRILLIC CAPITAL LETTER KA WITH STROKE
ENCODING 158
SWIDTH 500 0
DWIDTH 8 0
BBX 8 16 0 -2
BITMAP
00
00
00
00
20
73
24
28
30
30
28
24
22
21
00
00
ENDCHAR
STARTCHAR U+049F CYRILLIC SMALL LETTER KA WITH STROKE
ENCODING 159
SWIDTH 500 0
DWIDTH 8 0
BBX 8 16 0 -2
BITMAP
00
00
00
00
00
00
23
74
28
30
28
24
22
21
00
00
ENDCHAR
STARTCHAR U+04A0 CYRILLIC CAPITAL LETTER BASHKIR KA
ENCODING 160
SWIDTH 500 0
DWIDTH 8 0
BBX 8 16 0 -2
BITMAP
00
00
00
00
e0
23
24
28
30
30
28
24
22
21
00
00
ENDCHAR
STARTCHAR U+04A1 CYRILLIC SMALL LETTER BASHKIR KA
ENCODING 161
SWIDTH 500 0
DWIDTH 8 0
BBX 8 16 0 -2
BITMAP
00
00
00
00
00
00
e3
24
28
30
28
24
22
21
00
00
ENDCHAR
STARTCHAR U+04A2 CYRILLIC CAPITAL LETTER EN WITH DESCENDER
ENCODING 162
SWIDTH 500 0
DWIDTH 8 0
BBX 8 16 0 -2
BITMAP
00
00
00
00
42
42
42
42
7e
42
42
42
42
43
01
01
ENDCHAR
STARTCHAR U+04A3 CYRILLIC SMALL LETTER EN WITH DESCENDER
ENCODING 163
SWIDTH 500 0
DWIDTH 8 0
BBX 8 16 0 -2
BITMAP
00
00
00
00
00
00
42
42
42
7e
42
42
42
43
01
01
ENDCHAR
STARTCHAR U+04A4 CYRILLIC CAPITAL LIGATURE EN GHE
ENCODING 164
SWIDTH 500 0
DWIDTH 8 0
BBX 8 16 0 -2
BITMAP
00
00
00
00
47
44
44
44
7c
44
44
44
44
44
00
00
ENDCHAR
STARTCHAR U+04A5 CYRILLIC SMALL LIGATURE EN GHE
ENCODING 165
SWIDTH 500 0
DWIDTH 8 0
BBX 8 16 0 -2
BITMAP
00
00
00
00
00
00
47
44
44
7c
44
44
44
44
00
00
ENDCHAR
STARTCHAR U+04A6 CYRILLIC CAPITAL LETTER PE WITH MIDDLE HOOK
ENCODING 166
SWIDTH 500 0
DWIDTH 8 0
BBX 8 16 0 -2
BITMAP
00
00
00
00
78
48
48
48
48
4e
49
49
49
49
01
06
ENDCHAR
STARTCHAR U+04A7 CYRILLIC SMALL LETTER PE WITH MIDDLE HOOK
ENCODING 167
SWIDTH 500 0
DWIDTH 8 0
BBX 8 16 0 -2
BITMAP
00
00
00
00
00
00
78
48
48
48
4e
49
49
49
01
06
ENDCHAR
STARTCHAR U+04A8 CYRILLIC CAPITAL LETTER ABKHASIAN HA
ENCODING 168
SWIDTH 500 0
DWIDTH 8 0
BBX 8 16 0 -2
BITMAP
00
00
00
00
1c
20
40
4c
52
52
52
52
2c
18
06
00
ENDCHAR
STARTCHAR U+04A9 CYRILLIC SMALL LETTER ABKHASIAN HA
ENCODING 169
SWIDTH 500 0
DWIDTH 8 0
BBX 8 16 0 -2
BITMAP
00
00
00
00
00
00
1c
20
4c
52
52
52
2c
18
06
00
ENDCHAR
STARTCHAR U+04AA CYRILLIC CAPITAL LETTER ES WITH DESCENDER
ENCODING 170
SWIDTH 500 0
DWIDTH 8 0
BBX 8 16 0 -2
BITMAP
00
00
00
00
3c
42
42
40
40
40
40
42
42
3c
10
0c
ENDCHAR
STARTCHAR U+04AB CYRILLIC SMALL LETTER ES WITH DESCENDER
ENCODING 171
SWIDTH 500 0
DWIDTH 8 0
BBX 8 16 0 -2
BITMAP
00
00
00
00
00
00
3c
42
42
40
40
42
42
3c
10
0c
ENDCHAR
STARTCHAR U+04AC CYRILLIC CAPITAL LETTER TE WITH DESCENDER
ENCODING 172
SWIDTH 500 0
DWIDTH 8 0
BBX 8 16 0 -2
BITMAP
00
00
00
00
7f
08
08
08
08
08
08
08
08
0c
04
04
ENDCHAR
STARTCHAR U+04AD CYRILLIC SMALL LETTER TE WITH DESCENDER
ENCODING 173
SWIDTH 500 0
DWIDTH 8 0
BBX 8 16 0 -2
BITMAP
00
00
00
00
00
00
7f
08
08
08
08
08
08
0c
04
04
ENDCHAR
STARTCHAR U+04AE CYRILLIC CAPITAL LETTER STRAIGHT U
ENCODING 174
SWIDTH 500 0
DWIDTH 8 0
BBX 8 16 0 -2
BITMAP
00
00
00
00
41
41
22
22
14
08
08
08
08
08
00
00
ENDCHAR
STARTCHAR U+04AF CYRILLIC SMALL LETTER STRAIGHT U
ENCODING 175
SWIDTH 500 0
DWIDTH 8 0
BBX 8 16 0 -2
BITMAP
00
00
00
00
00
00
22
22
22
14
14
08
08
08
08
08
ENDCHAR
STARTCHAR U+04B0 CYRILLIC CAPITAL LETTER STRAIGHT U WITH STROKE
ENCODING 176
SWIDTH 500 0
DWIDTH 8 0
BBX 8 16 0 -2
BITMAP
00
00
00
00
41
41
22
22
14
08
08
3e
08
08
00
00
ENDCHAR
STARTCHAR U+04B1 CYRILLIC SMALL LETTER STRAIGHT U WITH STROKE
ENCODING 177
SWIDTH 500 0
DWIDTH 8 0
BBX 8 16 0 -2
BITMAP
00
00
00
00
00
00
22
22
22
14
08
08
3e
08
00
00
ENDCHAR
STARTCHAR U+04B2 CYRILLIC CAPITAL LETTER HA WITH DESCENDER
ENCODING 178
SWIDTH 500 0
DWIDTH 8 0
BBX 8 16 0 -2
BITMAP
00
00
00
00
42
42
24
24
18
18
24
24
42
43
01
01
ENDCHAR
STARTCHAR U+04B3 CYRILLIC SMALL LETTER HA WITH DESCENDER
ENCODING 179
SWIDTH 500 0
DWIDTH 8 0
BBX 8 16 0 -2
BITMAP
00
00
00
00
00
00
42
42
24
18
18
24
42
43
01
01
ENDCHAR
STARTCHAR U+04B4 CYRILLIC CAPITAL LIGATURE TE TSE
ENCODING 180
SWIDTH 500 0
DWIDTH 8 0
BBX 8 16 0 -2
BITMAP
00
00
00
00
fa
22
22
22
22
22
22
22
22
3f
01
01
ENDCHAR
STARTCHAR U+04B5 CYRILLIC SMALL LIGATURE TE TSE
ENCODING 181
SWIDTH 500 0
DWIDTH 8 0
BBX 8 16 0 -2
BITMAP
00
00
00
00
00
00
fa
22
22
22
22
22
22
3f
01
01
ENDCHAR
STARTCHAR U+04B6 CYRILLIC CAPITAL LETTER CHE WITH DESCENDER
ENCODING 182
SWIDTH 500 0
DWIDTH 8 0
BBX 8 16 0 -2
BITMAP
00
00
00
00
42
42
42
42
42
46
3a
02
02
03
01
01
ENDCHAR
STARTCHAR U+04B7 CYRILLIC SMALL LETTER CHE WITH DESCENDER
ENCODING 183
SWIDTH 500 0
DWIDTH 8 0
BBX 8 16 0 -2
BITMAP
00
00
00
00
00
00
42
42
42
42
46
3a
02
03
01
01
ENDCHAR
STARTCHAR U+04B8 CYRILLIC CAPITAL LETTER CHE WITH VERTICAL STROKE
ENCODING 184
SWIDTH 500 0
DWIDTH 8 0
BBX 8 16 0 -2
BITMAP
00
00
00
00
42
42
42
42
52
56
3a
12
12
02
00
00
ENDCHAR
STARTCHAR U+04B9 CYRILLIC SMALL LETTER CHE WITH VERTICAL STROKE
ENCODING 185
SWIDTH 500 0
DWIDTH 8 0
BBX 8 16 0 -2
BITMAP
00
00
00
00
00
00
42
42
42
52
56
3a
12
02
00
00
ENDCHAR
STARTCHAR U+04BA CYRILLIC CAPITAL LETTER SHHA
ENCODING 186
SWIDTH 500 0
DWIDTH 8 0
BBX 8 16 0 -2
BITMAP
00
00
00
00
40
40
40
5c
62
42
42
42
42
42
00
00
ENDCHAR
STARTCHAR U+04BB CYRILLIC SMALL LETTER SHHA
ENCODING 187
SWIDTH 500 0
DWIDTH 8 0
BBX 8 16 0 -2
BITMAP
00
00
00
00
00
00
40
40
5c
62
42
42
42
42
00
00
ENDCHAR
STARTCHAR U+04BC CYRILLIC CAPITAL LETTER ABKHASIAN CHE
ENCODING 188
SWIDTH 500 0
DWIDTH 8 0
BBX 8 16 0 -2
BITMAP
00
00
00
00
4c
52
52
52
3e
10
10
12
12
0c
00
00
ENDCHAR
STARTCHAR U+04BD CYRILLIC SMALL LETTER ABKHASIAN CHE
ENCODING 189
SWIDTH 500 0
DWIDTH 8 0
BBX 8 16 0 -2
BITMAP
00
00
00
00
00
00
4c
52
52
3e
10
10
12
0c
00
00
ENDCHAR
STARTCHAR U+04BE CYRILLIC CAPITAL LETTER ABKHASIAN CHE WITH DESCENDER
ENCODING 190
SWIDTH 500 0
DWIDTH 8 0
BBX 8 16 0 -2
BITMAP
00
00
00
00
4c
52
52
52
3e
10
10
12
12
0c
08
06
ENDCHAR
STARTCHAR U+04BF CYRILLIC SMALL LETTER ABKHASIAN CHE WITH DESCENDER
ENCODING 191
SWIDTH 500 0
DWIDTH 8 0
BBX 8 16 0 -2
BITMAP
00
00
00
00
00
00
4c
52
52
3e
10
10
12
0c
08
06
ENDCHAR
STARTCHAR U+04C0 CYRILLIC LETTER PALOCHKA
ENCODING 192
SWIDTH 500 0
DWIDTH 8 0
BBX 8 16 0 -2
BITMAP
00
00
00
00
3e
08
08
08
08
08
08
08
08
3e
00
00
ENDCHAR
STARTCHAR U+04C1 CYRILLIC CAPITAL LETTER ZHE WITH BREVE
ENCODING 193
SWIDTH 500 0
DWIDTH 8 0
BBX 8 16 0 -2
BITMAP
41
41
3e
00
49
49
2a
2a
1c
1c
2a
2a
49
49
00
00
ENDCHAR
STARTCHAR U+04C2 CYRILLIC SMALL LETTER ZHE WITH BREVE
ENCODING 194
SWIDTH 500 0
DWIDTH 8 0
BBX 8 16 0 -2
BITMAP
00
22
22
1c
00
00
49
49
2a
1c
1c
2a
49
49
00
00
ENDCHAR
STARTCHAR U+04C3 CYRILLIC CAPITAL LETTER KA WITH HOOK
ENCODING 195
SWIDTH 500 0
DWIDTH 8 0
BBX 8 16 0 -2
BITMAP
00
00
00
00
40
46
48
50
60
7c
42
42
42
42
02
0c
ENDCHAR
STARTCHAR U+04C4 CYRILLIC SMALL LETTER KA WITH HOOK
ENCODING 196
SWIDTH 500 0
DWIDTH 8 0
BBX 8 16 0 -2
BITMAP
00
00
00
00
00
00
46
48
50
60
7c
42
42
42
02
0c
ENDCHAR
STARTCHAR U+04C7 CYRILLIC CAPITAL LETTER EN WITH HOOK
ENCODING 199
SWIDTH 500 0
DWIDTH 8 0
BBX 8 16 0 -2
BITMAP
00
00
00
00
42
42
42
42
7e
42
42
42
42
42
02
0c
ENDCHAR
STARTCHAR U+04C8 CYRILLIC SMALL LETTER EN WITH HOOK
ENCODING 200
SWIDTH 500 0
DWIDTH 8 0
BBX 8 16 0 -2
BITMAP
00
00
00
00
00
00
42
42
42
7e
42
42
42
42
02
0c
ENDCHAR
STARTCHAR U+04CB CYRILLIC CAPITAL LETTER KHAKASSIAN CHE
ENCODING 203
SWIDTH 500 0
DWIDTH 8 0
BBX 8 16 0 -2
BITMAP
00
00
00
00
42
42
42
42
42
46
3a
02
02
06
04
04
ENDCHAR
STARTCHAR U+04CC CYRILLIC SMALL LETTER KHAKASSIAN CHE
ENCODING 204
SWIDTH 500 0
DWIDTH 8 0
BBX 8 16 0 -2
BITMAP
00
00
00
00
00
00
42
42
42
42
46
3a
02
06
04
04
ENDCHAR
STARTCHAR U+04D0 CYRILLIC CAPITAL LETTER A WITH BREVE
ENCODING 208
SWIDTH 500 0
DWIDTH 8 0
BBX 8 16 0 -2
BITMAP
42
42
3c
00
18
24
24
42
42
7e
42
42
42
42
00
00
ENDCHAR
STARTCHAR U+04D1 CYRILLIC SMALL LETTER A WITH BREVE
ENCODING 209
SWIDTH 500 0
DWIDTH 8 0
BBX 8 16 0 -2
BITMAP
00
42
42
3c
00
00
3c
42
02
3e
42
42
46
3a
00
00
ENDCHAR
STARTCHAR U+04D2 CYRILLIC CAPITAL LETTER A WITH DIAERESIS
ENCODING 210
SWIDTH 500 0
DWIDTH 8 0
BBX 8 16 0 -2
BITMAP
24
24
00
00
18
24
24
42
42
7e
42
42
42
42
00
00
ENDCHAR
STARTCHAR U+04D3 CYRILLIC SMALL LETTER A WITH DIAERESIS
ENCODING 211
SWIDTH 500 0
DWIDTH 8 0
BBX 8 16 0 -2
BITMAP
00
00
24
24
00
00
3c
42
02
3e
42
42
46
3a
00
00
ENDCHAR
STARTCHAR U+04D4 CYRILLIC CAPITAL LIGATURE A IE
ENCODING 212
SWIDTH 500 0
DWIDTH 8 0
BBX 8 16 0 -2
BITMAP
00
00
00
00
1f
28
48
48
7f
48
48
48
48
4f
00
00
ENDCHAR
STARTCHAR U+04D5 CYRILLIC SMALL LIGATURE A IE
ENCODING 213
SWIDTH 500 0
DWIDTH 8 0
BBX 8 16 0 -2
BITMAP
00
00
00
00
00
00
3e
49
09
3f
48
48
49
3e
00
00
ENDCHAR
STARTCHAR U+04D6 CYRILLIC CAPITAL LETTER IE WITH BREVE
ENCODING 214
SWIDTH 500 0
DWIDTH 8 0
BBX 8 16 0 -2
BITMAP
42
42
3c
00
7e
40
40
40
7c
40
40
40
40
7e
00
00
ENDCHAR
STARTCHAR U+04D7 CYRILLIC SMALL LETTER IE WITH BREVE
ENCODING 215
SWIDTH 500 0
DWIDTH 8 0
BBX 8 16 0 -2
BITMAP
00
00
42
42
3c
00
3c
42
42
7e
40
40
42
3c
00
00
ENDCHAR
STARTCHAR U+04D8 CYRILLIC CAPITAL LETTER SCHWA
ENCODING 216
SWIDTH 500 0
DWIDTH 8 0
BBX 8 16 0 -2
BITMAP
00
00
00
00
18
24
42
02
02
7e
42
42
24
18
00
00
ENDCHAR
STARTCHAR U+04D9 CYRILLIC SMALL LETTER SCHWA
ENCODING 217
SWIDTH 500 0
DWIDTH 8 0
BBX 8 16 0 -2
BITMAP
00
00
00
00
00
00
3c
42
02
02
7e
42
42
3c
00
00
ENDCHAR
STARTCHAR U+04DA CYRILLIC CAPITAL LETTER SCHWA WITH DIAERESIS
ENCODING 218
SWIDTH 500 0
DWIDTH 8 0
BBX 8 16 0 -2
BITMAP
24
24
00
00
18
24
42
02
02
7e
42
42
24
18
00
00
ENDCHAR
STARTCHAR U+04DB CYRILLIC SMALL LETTER SCHWA WITH DIAERESIS
ENCODING 219
SWIDTH 500 0
DWIDTH 8 0
BBX 8 16 0 -2
BITMAP
00
00
24
24
00
00
3c
42
02
02
7e
42
42
3c
00
00
ENDCHAR
STARTCHAR U+04DC CYRILLIC CAPITAL LETTER ZHE WITH DIAERESIS
ENCODING 220
SWIDTH 500 0
DWIDTH 8 0
BBX 8 16 0 -2
BITMAP
24
24
00
00
49
49
2a
2a
1c
1c
2a
2a
49
49
00
00
ENDCHAR
STARTCHAR U+04DD CYRILLIC SMALL LETTER ZHE WITH DIAERESIS
ENCODING 221
SWIDTH 500 0
DWIDTH 8 0
BBX 8 16 0 -2
BITMAP
00
00
24
24
00
00
49
49
2a
1c
1c
2a
49
49
00
00
ENDCHAR
STARTCHAR U+04DE CYRILLIC CAPITAL LETTER ZE WITH DIAERESIS
ENCODING 222
SWIDTH 500 0
DWIDTH 8 0
BBX 8 16 0 -2
BITMAP
24
24
00
00
3c
42
02
02
3c
04
02
02
42
3c
00
00
ENDCHAR
STARTCHAR U+04DF CYRILLIC SMALL LETTER ZE WITH DIAERESIS
ENCODING 223
SWIDTH 500 0
DWIDTH 8 0
BBX 8 16 0 -2
BITMAP
00
00
24
24
00
00
3c
42
02
3c
04
02
42
3c
00
00
ENDCHAR
STARTCHAR U+04E0 CYRILLIC CAPITAL LETTER ABKHASIAN DZE
ENCODING 224
SWIDTH 500 0
DWIDTH 8 0
BBX 8 16 0 -2
BITMAP
00
00
00
00
7e
04
08
10
1c
02
02
02
46
3c
00
00
ENDCHAR
STARTCHAR U+04E1 CYRILLIC SMALL LETTER ABKHASIAN DZE
ENCODING 225
SWIDTH 500 0
DWIDTH 8 0
BBX 8 16 0 -2
BITMAP
00
00
00
00
00
00
3e
04
08
10
1c
02
02
02
42
3c
ENDCHAR
STARTCHAR U+04E2 CYRILLIC CAPITAL LETTER I WITH MACRON
ENCODING 226
SWIDTH 500 0
DWIDTH 8 0
BBX 8 16 0 -2
BITMAP
00
3c
00
00
42
46
46
4a
4a
52
52
62
62
42
00
00
ENDCHAR
STARTCHAR U+04E3 CYRILLIC SMALL LETTER I WITH MACRON
ENCODING 227
SWIDTH 500 0
DWIDTH 8 0
BBX 8 16 0 -2
BITMAP
00
00
00
3c
00
00
46
46
4a
4a
52
52
62
62
00
00
ENDCHAR
STARTCHAR U+04E4 CYRILLIC CAPITAL LETTER I WITH DIAERESIS
ENCODING 228
SWIDTH 500 0
DWIDTH 8 0
BBX 8 16 0 -2
BITMAP
24
24
00
00
42
46
46
4a
4a
52
52
62
62
42
00
00
ENDCHAR
STARTCHAR U+04E5 CYRILLIC SMALL LETTER I WITH DIAERESIS
ENCODING 229
SWIDTH 500 0
DWIDTH 8 0
BBX 8 16 0 -2
BITMAP
00
00
24
24
00
00
46
46
4a
4a
52
52
62
62
00
00
ENDCHAR
STARTCHAR U+04E6 CYRILLIC CAPITAL LETTER O WITH DIAERESIS
ENCODING 230
SWIDTH 500 0
DWIDTH 8 0
BBX 8 16 0 -2
BITMAP
24
24
00
00
3c
42
42
42
42
42
42
42
42
3c
00
00
ENDCHAR
STARTCHAR U+04E7 CYRILLIC SMALL LETTER O WITH DIAERESIS
ENCODING 231
SWIDTH 500 0
DWIDTH 8 0
BBX 8 16 0 -2
BITMAP
00
00
24
24
00
00
3c
42
42
42
42
42
42
3c
00
00
ENDCHAR
STARTCHAR U+04E8 CYRILLIC CAPITAL LETTER BARRED O
ENCODING 232
SWIDTH 500 0
DWIDTH 8 0
BBX 8 16 0 -2
BITMAP
00
00
00
00
3c
42
42
42
7e
42
42
42
42
3c
00
00
ENDCHAR
STARTCHAR U+04E9 CYRILLIC SMALL LETTER BARRED O
ENCODING 233
SWIDTH 500 0
DWIDTH 8 0
BBX 8 16 0 -2
BITMAP
00
00
00
00
00
00
3c
42
42
7e
42
42
42
3c
00
00
ENDCHAR
STARTCHAR U+04EA CYRILLIC CAPITAL LETTER BARRED O WITH DIAERESIS
ENCODING 234
SWIDTH 500 0
DWIDTH 8 0
BBX 8 16 0 -2
BITMAP
24
24
00
00
3c
42
42
42
7e
42
42
42
42
3c
00
00
ENDCHAR
STARTCHAR U+04EB CYRILLIC SMALL LETTER BARRED O WITH DIAERESIS
ENCODING 235
SWIDTH 500 0
DWIDTH 8 0
BBX 8 16 0 -2
BITMAP
00
00
24
24
00
00
3c
42
42
7e
42
42
42
3c
00
00
ENDCHAR
STARTCHAR U+04EE CYRILLIC CAPITAL LETTER U WITH MACRON
ENCODING 238
SWIDTH 500 0
DWIDTH 8 0
BBX 8 16 0 -2
BITMAP
00
3e
00
00
41
41
22
22
14
14
08
08
10
30
00
00
ENDCHAR
STARTCHAR U+04EF CYRILLIC SMALL LETTER U WITH MACRON
ENCODING 239
SWIDTH 500 0
DWIDTH 8 0
BBX 8 16 0 -2
BITMAP
00
00
00
3c
00
00
42
42
24
24
18
18
10
10
20
60
ENDCHAR
STARTCHAR U+04F0 CYRILLIC CAPITAL LETTER U WITH DIAERESIS
ENCODING 240
SWIDTH 500 0
DWIDTH 8 0
BBX 8 16 0 -2
BITMAP
24
24
00
00
41
41
22
22
14
14
08
08
10
30
00
00
ENDCHAR
STARTCHAR U+04F1 CYRILLIC SMALL LETTER U WITH DIAERESIS
ENCODING 241
SWIDTH 500 0
DWIDTH 8 0
BBX 8 16 0 -2
BITMAP
00
00
24
24
00
00
42
42
24
24
18
18
10
10
20
60
ENDCHAR
STARTCHAR U+04F2 CYRILLIC CAPITAL LETTER U WITH DOUBLE ACUTE
ENCODING 242
SWIDTH 500 0
DWIDTH 8 0
BBX 8 16 0 -2
BITMAP
33
44
00
00
41
41
22
22
14
14
08
08
10
30
00
00
ENDCHAR
STARTCHAR U+04F3 CYRILLIC SMALL LETTER U WITH DOUBLE ACUTE
ENCODING 243
SWIDTH 500 0
DWIDTH 8 0
BBX 8 16 0 -2
BITMAP
00
00
33
44
00
00
42
42
24
24
18
18
10
10
20
60
ENDCHAR
STARTCHAR U+04F4 CYRILLIC CAPITAL LETTER CHE WITH DIAERESIS
ENCODING 244
SWIDTH 500 0
DWIDTH 8 0
BBX 8 16 0 -2
BITMAP
24
24
00
00
42
42
42
42
42
46
3a
02
02
02
00
00
ENDCHAR
STARTCHAR U+04F5 CYRILLIC SMALL LETTER CHE WITH DIAERESIS
ENCODING 245
SWIDTH 500 0
DWIDTH 8 0
BBX 8 16 0 -2
BITMAP
00
00
24
24
00
00
42
42
42
42
46
3a
02
02
00
00
ENDCHAR
STARTCHAR U+04F8 CYRILLIC CAPITAL LETTER YERU WITH DIAERESIS
ENCODING 248
SWIDTH 500 0
DWIDTH 8 0
BBX 8 16 0 -2
BITMAP
24
24
00
00
42
42
42
42
72
4a
4a
4a
4a
72
00
00
ENDCHAR
STARTCHAR U+04F9 CYRILLIC SMALL LETTER YERU WITH DIAERESIS
ENCODING 249
SWIDTH 500 0
DWIDTH 8 0
BBX 8 16 0 -2
BITMAP
00
00
24
24
00
00
42
42
42
72
4a
4a
4a
72
00
00
ENDCHAR
ENDFONT
